<?xml version="1.0" encoding="UTF-8" standalone="no"?>
<!DOCTYPE svg PUBLIC "-//W3C//DTD SVG 1.1//EN" "http://www.w3.org/Graphics/SVG/1.1/DTD/svg11.dtd">
<svg width="100%" height="100%" viewBox="0 0 2363 2363" version="1.1" xmlns="http://www.w3.org/2000/svg" xmlns:xlink="http://www.w3.org/1999/xlink" xml:space="preserve" xmlns:serif="http://www.serif.com/" style="fill-rule:evenodd;clip-rule:evenodd;stroke-linecap:round;stroke-linejoin:round;stroke-miterlimit:1.5;">
    <g transform="matrix(0.9381,0,0,0.9381,73.124,73.1108)">
        <path d="M970.17,1181.1C970.17,1181.1 1575.34,871.085 1834.06,1422.27C1834.06,1422.27 2171.7,1488.14 2362.2,1590.99L2025.83,1943.4C2025.83,1943.4 1571.2,2309.89 1521.35,1806.97C1521.35,1806.97 1126.21,2138.04 945.423,2106.18C764.636,2074.32 848.685,1806.97 848.685,1806.97L927.426,1615.74L970.17,1181.1Z" style="fill:rgb(45,105,8);"/>
    </g>
    <g transform="matrix(0.9381,0,0,0.9381,73.124,73.1108)">
        <path d="M974.67,2109.53C974.67,2109.53 1345.87,2011.69 1537.1,1779.97C1537.1,1779.97 1480.86,2072.43 1732.83,2074.68C1984.79,2076.93 2377.41,1579.75 2362.2,1573C2362.2,1573 1937.55,1422.27 1838.56,1417.77C1838.56,1417.77 1606.84,944.439 990.418,1181.1" style="fill:none;stroke:rgb(14,39,5);stroke-width:44.42px;"/>
    </g>
    <g transform="matrix(0.9381,0,0,0.9381,73.124,73.1108)">
        <path d="M1545.77,1776.83C1545.77,1776.83 1768.5,2114.29 1869.73,1828.57C1970.97,1542.86 1840.28,1420.18 1840.28,1420.18" style="fill:none;stroke:rgb(14,39,5);stroke-width:44.42px;"/>
    </g>
    <g transform="matrix(0.9381,0,0,0.9381,73.124,73.1108)">
        <path d="M820.472,1816.69C820.472,1816.69 926.209,1398.24 764.229,1058.53L946.457,959.546C946.457,959.546 1133.18,1588.98 896.963,1982.68L820.472,1816.69Z" style="fill:rgb(128,63,15);"/>
        <path d="M820.472,1816.69C820.472,1816.69 926.209,1398.24 764.229,1058.53L946.457,959.546C946.457,959.546 1133.18,1588.98 896.963,1982.68L820.472,1816.69ZM867.127,1811.81C883.87,1734.08 948.241,1383.14 821.496,1077.97C821.496,1077.97 917.785,1025.67 917.785,1025.67C937.16,1106.58 970.129,1270.16 972.018,1452.92C973.477,1594.05 956.7,1747.01 899.047,1881.08L867.127,1811.81Z" style="fill:rgb(50,25,14);"/>
    </g>
    <g transform="matrix(0.9381,0,0,0.9381,73.124,73.1108)">
        <path d="M316.535,266.149C316.535,266.149 1175.93,-289.981 1462.09,266.149L2280.54,354.047L1754.09,1181.1C1754.09,1181.1 1575.48,1401.81 1368.5,1269.52C1368.5,1269.52 1221.76,1162.44 1227.64,939.265C1227.64,939.265 752.081,1203.83 701.237,1269.52L316.535,266.149Z" style="fill:rgb(209,163,20);"/>
    </g>
    <g transform="matrix(0.9381,0,0,0.9381,73.124,73.1108)">
        <path d="M316.535,250.401L764.229,77.173C764.229,77.173 1164.68,-100.555 1344.66,122.167C1524.63,344.889 1823.85,698.095 1823.85,698.095" style="fill:none;stroke:rgb(81,66,10);stroke-width:44.42px;"/>
    </g>
    <g transform="matrix(0.9381,0,0,0.9381,73.124,73.1108)">
        <path d="M701.237,1269.52C701.237,1269.52 1322.16,799.332 1540.38,860.075C1758.61,920.817 1641.62,956.813 1603.37,1017.56" style="fill:none;stroke:rgb(81,66,10);stroke-width:44.42px;"/>
    </g>
    <g transform="matrix(0.9381,0,0,0.9381,73.124,73.1108)">
        <path d="M1477.39,266.149L2280.54,354.047C2280.54,354.047 1782,1316.32 1511.14,1314.52C1218.13,1312.57 1227.67,959.546 1227.67,959.546" style="fill:none;stroke:rgb(81,66,10);stroke-width:43.93px;"/>
    </g>
    <g transform="matrix(0.9381,0,0,0.9381,73.124,73.1108)">
        <path d="M0,147.874C0,147.874 781.215,2086.46 839.708,2362.2L1107.42,2362.2L234.533,0L0,147.874Z" style="fill:rgb(128,63,15);"/>
        <path d="M0,147.874C0,147.874 781.215,2086.46 839.708,2362.2L1107.42,2362.2L234.533,0L0,147.874ZM55.029,165.685L211.866,66.799C211.866,66.799 1043.66,2317.79 1043.66,2317.79C990.607,2317.79 917.092,2317.79 874.348,2317.79C778.862,1972.68 156.045,417.253 55.029,165.685Z" style="fill:rgb(50,25,14);"/>
    </g>
</svg>